<?xml version="1.0" encoding="UTF-8" standalone="no"?>
<svg
   width="700pt"
   height="700pt"
   version="1.1"
   viewBox="0 0 700 700"
   id="svg573"
   sodipodi:docname="lizard.svg"
   inkscape:version="1.1 (c68e22c387, 2021-05-23)"
   xmlns:inkscape="http://www.inkscape.org/namespaces/inkscape"
   xmlns:sodipodi="http://sodipodi.sourceforge.net/DTD/sodipodi-0.dtd"
   xmlns="http://www.w3.org/2000/svg"
   xmlns:svg="http://www.w3.org/2000/svg">
  <sodipodi:namedview
     id="namedview575"
     pagecolor="#ffffff"
     bordercolor="#666666"
     borderopacity="1.0"
     inkscape:pageshadow="2"
     inkscape:pageopacity="0.0"
     inkscape:pagecheckerboard="0"
     inkscape:document-units="pt"
     showgrid="false"
     inkscape:zoom="0.6151829"
     inkscape:cx="153.61285"
     inkscape:cy="403.94491"
     inkscape:window-width="1920"
     inkscape:window-height="1001"
     inkscape:window-x="2391"
     inkscape:window-y="-9"
     inkscape:window-maximized="1"
     inkscape:current-layer="g571" />
  <defs
     id="defs483">
    <symbol
       id="v"
       overflow="visible">
      <path
         d="m18.766-1.125c-0.96875 0.5-1.9805 0.875-3.0312 1.125-1.043 0.25781-2.1367 0.39062-3.2812 0.39062-3.3984 0-6.0898-0.94531-8.0781-2.8438-1.9922-1.9062-2.9844-4.4844-2.9844-7.7344 0-3.2578 0.99219-5.8359 2.9844-7.7344 1.9883-1.9062 4.6797-2.8594 8.0781-2.8594 1.1445 0 2.2383 0.13281 3.2812 0.39062 1.0508 0.25 2.0625 0.625 3.0312 1.125v4.2188c-0.98047-0.65625-1.9453-1.1406-2.8906-1.4531-0.94922-0.3125-1.9492-0.46875-3-0.46875-1.875 0-3.3516 0.60547-4.4219 1.8125-1.0742 1.1992-1.6094 2.8555-1.6094 4.9688 0 2.1055 0.53516 3.7617 1.6094 4.9688 1.0703 1.1992 2.5469 1.7969 4.4219 1.7969 1.0508 0 2.0508-0.14844 3-0.45312 0.94531-0.3125 1.9102-0.80078 2.8906-1.4688z"
         id="path417" />
    </symbol>
    <symbol
       id="b"
       overflow="visible">
      <path
         d="m13.734-11.141c-0.4375-0.19531-0.87109-0.34375-1.2969-0.4375-0.41797-0.10156-0.83984-0.15625-1.2656-0.15625-1.2617 0-2.2305 0.40625-2.9062 1.2188-0.67969 0.80469-1.0156 1.9531-1.0156 3.4531v7.0625h-4.8906v-15.312h4.8906v2.5156c0.625-1 1.3438-1.7266 2.1562-2.1875 0.82031-0.46875 1.8008-0.70312 2.9375-0.70312 0.16406 0 0.34375 0.011719 0.53125 0.03125 0.19531 0.011719 0.47656 0.039062 0.84375 0.078125z"
         id="path420" />
    </symbol>
    <symbol
       id="a"
       overflow="visible">
      <path
         d="m17.641-7.7031v1.4062h-11.453c0.125 1.1484 0.53906 2.0078 1.25 2.5781 0.70703 0.57422 1.7031 0.85938 2.9844 0.85938 1.0312 0 2.082-0.14844 3.1562-0.45312 1.082-0.3125 2.1914-0.77344 3.3281-1.3906v3.7656c-1.1562 0.4375-2.3125 0.76562-3.4688 0.98438-1.1562 0.22656-2.3125 0.34375-3.4688 0.34375-2.7734 0-4.9297-0.70312-6.4688-2.1094-1.5312-1.4062-2.2969-3.3789-2.2969-5.9219 0-2.5 0.75391-4.4609 2.2656-5.8906 1.5078-1.4375 3.582-2.1562 6.2188-2.1562 2.4062 0 4.332 0.73047 5.7812 2.1875 1.4453 1.4492 2.1719 3.3828 2.1719 5.7969zm-5.0312-1.625c0-0.92578-0.27344-1.6719-0.8125-2.2344-0.54297-0.57031-1.25-0.85938-2.125-0.85938-0.94922 0-1.7188 0.26562-2.3125 0.79688s-0.96484 1.2969-1.1094 2.2969z"
         id="path423" />
    </symbol>
    <symbol
       id="c"
       overflow="visible">
      <path
         d="m9.2188-6.8906c-1.0234 0-1.793 0.17188-2.3125 0.51562-0.51172 0.34375-0.76562 0.85547-0.76562 1.5312 0 0.625 0.20703 1.1172 0.625 1.4688 0.41406 0.34375 0.98828 0.51562 1.7188 0.51562 0.92578 0 1.7031-0.32812 2.3281-0.98438 0.63281-0.66406 0.95312-1.4922 0.95312-2.4844v-0.5625zm7.4688-1.8438v8.7344h-4.9219v-2.2656c-0.65625 0.92969-1.3984 1.6055-2.2188 2.0312-0.82422 0.41406-1.8242 0.625-3 0.625-1.5859 0-2.8711-0.45703-3.8594-1.375-0.99219-0.92578-1.4844-2.1289-1.4844-3.6094 0-1.7891 0.61328-3.1016 1.8438-3.9375 1.2383-0.84375 3.1797-1.2656 5.8281-1.2656h2.8906v-0.39062c0-0.76953-0.30859-1.332-0.92188-1.6875-0.61719-0.36328-1.5703-0.54688-2.8594-0.54688-1.0547 0-2.0312 0.10547-2.9375 0.3125-0.89844 0.21094-1.7305 0.52344-2.5 0.9375v-3.7344c1.0391-0.25 2.0859-0.44141 3.1406-0.57812 1.0625-0.13281 2.125-0.20312 3.1875-0.20312 2.7578 0 4.75 0.54688 5.9688 1.6406 1.2266 1.0859 1.8438 2.8555 1.8438 5.3125z"
         id="path426" />
    </symbol>
    <symbol
       id="d"
       overflow="visible">
      <path
         d="m7.7031-19.656v4.3438h5.0469v3.5h-5.0469v6.5c0 0.71094 0.14062 1.1875 0.42188 1.4375s0.83594 0.375 1.6719 0.375h2.5156v3.5h-4.1875c-1.9375 0-3.3125-0.39844-4.125-1.2031-0.80469-0.8125-1.2031-2.1797-1.2031-4.1094v-6.5h-2.4219v-3.5h2.4219v-4.3438z"
         id="path429" />
    </symbol>
    <symbol
       id="g"
       overflow="visible">
      <path
         d="m12.766-13.078v-8.2031h4.9219v21.281h-4.9219v-2.2188c-0.66797 0.90625-1.4062 1.5703-2.2188 1.9844s-1.7578 0.625-2.8281 0.625c-1.8867 0-3.4336-0.75-4.6406-2.25-1.2109-1.5-1.8125-3.4258-1.8125-5.7812 0-2.3633 0.60156-4.2969 1.8125-5.7969 1.207-1.5 2.7539-2.25 4.6406-2.25 1.0625 0 2 0.21484 2.8125 0.64062 0.82031 0.42969 1.5664 1.0859 2.2344 1.9688zm-3.2188 9.9219c1.0391 0 1.8359-0.37891 2.3906-1.1406 0.55078-0.76953 0.82812-1.8828 0.82812-3.3438 0-1.457-0.27734-2.5664-0.82812-3.3281-0.55469-0.76953-1.3516-1.1562-2.3906-1.1562-1.043 0-1.8398 0.38672-2.3906 1.1562-0.55469 0.76172-0.82812 1.8711-0.82812 3.3281 0 1.4609 0.27344 2.5742 0.82812 3.3438 0.55078 0.76172 1.3477 1.1406 2.3906 1.1406z"
         id="path432" />
    </symbol>
    <symbol
       id="j"
       overflow="visible">
      <path
         d="m10.5-3.1562c1.0508 0 1.8516-0.37891 2.4062-1.1406 0.55078-0.76953 0.82812-1.8828 0.82812-3.3438 0-1.457-0.27734-2.5664-0.82812-3.3281-0.55469-0.76953-1.3555-1.1562-2.4062-1.1562-1.0547 0-1.8594 0.38672-2.4219 1.1562-0.55469 0.77344-0.82812 1.8828-0.82812 3.3281 0 1.4492 0.27344 2.5586 0.82812 3.3281 0.5625 0.77344 1.3672 1.1562 2.4219 1.1562zm-3.25-9.9219c0.67578-0.88281 1.4219-1.5391 2.2344-1.9688 0.82031-0.42578 1.7656-0.64062 2.8281-0.64062 1.8945 0 3.4453 0.75 4.6562 2.25 1.207 1.5 1.8125 3.4336 1.8125 5.7969 0 2.3555-0.60547 4.2812-1.8125 5.7812-1.2109 1.5-2.7617 2.25-4.6562 2.25-1.0625 0-2.0078-0.21094-2.8281-0.625-0.8125-0.42578-1.5586-1.0859-2.2344-1.9844v2.2188h-4.8906v-21.281h4.8906z"
         id="path435" />
    </symbol>
    <symbol
       id="i"
       overflow="visible">
      <path
         d="m0.34375-15.312h4.8906l4.125 10.391 3.5-10.391h4.8906l-6.4375 16.766c-0.64844 1.6953-1.4023 2.8828-2.2656 3.5625-0.86719 0.6875-2 1.0312-3.4062 1.0312h-2.8438v-3.2188h1.5312c0.83203 0 1.4375-0.13672 1.8125-0.40625 0.38281-0.26172 0.67969-0.73047 0.89062-1.4062l0.14062-0.42188z"
         id="path438" />
    </symbol>
    <symbol
       id="h"
       overflow="visible">
      <path
         d="m2.3594-21.281h4.8906v21.281h-4.8906z"
         id="path441" />
    </symbol>
    <symbol
       id="u"
       overflow="visible">
      <path
         d="m6.2188-7.8281-5.5156-7.4844h5.1719l3.1406 4.5312 3.1719-4.5312h5.1719l-5.5156 7.4531 5.7969 7.8594h-5.1875l-3.4375-4.8438-3.4062 4.8438h-5.1875z"
         id="path444" />
    </symbol>
    <symbol
       id="f"
       overflow="visible">
      <path
         d="m17.75-9.3281v9.3281h-4.9219v-7.1406c0-1.3203-0.03125-2.2344-0.09375-2.7344s-0.16797-0.86719-0.3125-1.1094c-0.1875-0.3125-0.44922-0.55469-0.78125-0.73438-0.32422-0.17578-0.69531-0.26562-1.1094-0.26562-1.0234 0-1.8242 0.39844-2.4062 1.1875-0.58594 0.78125-0.875 1.8711-0.875 3.2656v7.5312h-4.8906v-15.312h4.8906v2.2344c0.73828-0.88281 1.5195-1.5391 2.3438-1.9688 0.83203-0.42578 1.75-0.64062 2.75-0.64062 1.7695 0 3.1133 0.54688 4.0312 1.6406 0.91406 1.0859 1.375 2.6562 1.375 4.7188z"
         id="path447" />
    </symbol>
    <symbol
       id="t"
       overflow="visible">
      <path
         d="m0.98438-15.312h4.7656l2.5625 10.547 2.5781-10.547h4.0938l2.5781 10.438 2.5781-10.438h4.75l-4.0312 15.312h-5.3438l-2.5781-10.531-2.5781 10.531h-5.3438z"
         id="path450" />
    </symbol>
    <symbol
       id="s"
       overflow="visible">
      <path
         d="m12.766-2.5938c-0.66797 0.88672-1.4062 1.543-2.2188 1.9688-0.8125 0.41797-1.7578 0.625-2.8281 0.625-1.8672 0-3.4062-0.73438-4.625-2.2031-1.2188-1.4766-1.8281-3.3516-1.8281-5.625 0-2.2891 0.60938-4.1641 1.8281-5.625 1.2188-1.4688 2.7578-2.2031 4.625-2.2031 1.0703 0 2.0156 0.21484 2.8281 0.64062 0.8125 0.41797 1.5508 1.0742 2.2188 1.9688v-2.2656h4.9219v13.766c0 2.457-0.77734 4.3359-2.3281 5.6406-1.5547 1.3008-3.8086 1.9531-6.7656 1.9531-0.94922 0-1.8711-0.074219-2.7656-0.21875-0.89844-0.14844-1.7969-0.37109-2.7031-0.67188v-3.8125c0.86328 0.48828 1.7031 0.85156 2.5156 1.0938 0.82031 0.23828 1.6484 0.35938 2.4844 0.35938 1.6016 0 2.7734-0.35156 3.5156-1.0469 0.75-0.69922 1.125-1.7969 1.125-3.2969zm-3.2188-9.5312c-1.0117 0-1.8047 0.375-2.375 1.125-0.5625 0.74219-0.84375 1.7969-0.84375 3.1719 0 1.3984 0.26953 2.4609 0.8125 3.1875 0.55078 0.71875 1.3516 1.0781 2.4062 1.0781 1.0195 0 1.8125-0.36719 2.375-1.1094 0.5625-0.75 0.84375-1.8008 0.84375-3.1562 0-1.375-0.28125-2.4297-0.84375-3.1719-0.5625-0.75-1.3555-1.125-2.375-1.125z"
         id="path453" />
    </symbol>
    <symbol
       id="r"
       overflow="visible">
      <path
         d="m12.422-21.281v3.2188h-2.7031c-0.6875 0-1.1719 0.125-1.4531 0.375-0.27344 0.25-0.40625 0.6875-0.40625 1.3125v1.0625h4.1875v3.5h-4.1875v11.812h-4.8906v-11.812h-2.4375v-3.5h2.4375v-1.0625c0-1.6641 0.46094-2.8984 1.3906-3.7031 0.92578-0.80078 2.3672-1.2031 4.3281-1.2031z"
         id="path456" />
    </symbol>
    <symbol
       id="e"
       overflow="visible">
      <path
         d="m9.6406-12.188c-1.0859 0-1.9141 0.39062-2.4844 1.1719-0.57422 0.78125-0.85938 1.9062-0.85938 3.375s0.28516 2.5938 0.85938 3.375c0.57031 0.77344 1.3984 1.1562 2.4844 1.1562 1.0625 0 1.875-0.38281 2.4375-1.1562 0.57031-0.78125 0.85938-1.9062 0.85938-3.375s-0.28906-2.5938-0.85938-3.375c-0.5625-0.78125-1.375-1.1719-2.4375-1.1719zm0-3.5c2.6328 0 4.6914 0.71484 6.1719 2.1406 1.4766 1.418 2.2188 3.3867 2.2188 5.9062 0 2.5117-0.74219 4.4805-2.2188 5.9062-1.4805 1.418-3.5391 2.125-6.1719 2.125-2.6484 0-4.7148-0.70703-6.2031-2.125-1.4922-1.4258-2.2344-3.3945-2.2344-5.9062 0-2.5195 0.74219-4.4883 2.2344-5.9062 1.4883-1.4258 3.5547-2.1406 6.2031-2.1406z"
         id="path459" />
    </symbol>
    <symbol
       id="q"
       overflow="visible">
      <path
         d="m16.547-12.766c0.61328-0.94531 1.3477-1.6719 2.2031-2.1719 0.85156-0.5 1.7891-0.75 2.8125-0.75 1.7578 0 3.0977 0.54688 4.0156 1.6406 0.92578 1.0859 1.3906 2.6562 1.3906 4.7188v9.3281h-4.9219v-7.9844-0.35938c0.007813-0.13281 0.015625-0.32031 0.015625-0.5625 0-1.082-0.16406-1.8633-0.48438-2.3438-0.3125-0.48828-0.82422-0.73438-1.5312-0.73438-0.92969 0-1.6484 0.38672-2.1562 1.1562-0.51172 0.76172-0.77344 1.8672-0.78125 3.3125v7.5156h-4.9219v-7.9844c0-1.6953-0.14844-2.7852-0.4375-3.2656-0.29297-0.48828-0.8125-0.73438-1.5625-0.73438-0.9375 0-1.6641 0.38672-2.1719 1.1562-0.51172 0.76172-0.76562 1.8594-0.76562 3.2969v7.5312h-4.9219v-15.312h4.9219v2.2344c0.60156-0.86328 1.2891-1.5156 2.0625-1.9531 0.78125-0.4375 1.6406-0.65625 2.5781-0.65625 1.0625 0 2 0.25781 2.8125 0.76562 0.8125 0.51172 1.4258 1.2305 1.8438 2.1562z"
         id="path462" />
    </symbol>
    <symbol
       id="p"
       overflow="visible">
      <path
         d="m17.75-9.3281v9.3281h-4.9219v-7.1094c0-1.3438-0.03125-2.2656-0.09375-2.7656s-0.16797-0.86719-0.3125-1.1094c-0.1875-0.3125-0.44922-0.55469-0.78125-0.73438-0.32422-0.17578-0.69531-0.26562-1.1094-0.26562-1.0234 0-1.8242 0.39844-2.4062 1.1875-0.58594 0.78125-0.875 1.8711-0.875 3.2656v7.5312h-4.8906v-21.281h4.8906v8.2031c0.73828-0.88281 1.5195-1.5391 2.3438-1.9688 0.83203-0.42578 1.75-0.64062 2.75-0.64062 1.7695 0 3.1133 0.54688 4.0312 1.6406 0.91406 1.0859 1.375 2.6562 1.375 4.7188z"
         id="path465" />
    </symbol>
    <symbol
       id="o"
       overflow="visible">
      <path
         d="m2.5781-20.406h5.875l7.4219 14v-14h4.9844v20.406h-5.875l-7.4219-14v14h-4.9844z"
         id="path468" />
    </symbol>
    <symbol
       id="n"
       overflow="visible">
      <path
         d="m2.1875-5.9688v-9.3438h4.9219v1.5312c0 0.83594-0.007813 1.875-0.015625 3.125-0.011719 1.25-0.015625 2.0859-0.015625 2.5 0 1.2422 0.03125 2.1328 0.09375 2.6719 0.070313 0.54297 0.17969 0.93359 0.32812 1.1719 0.20703 0.32422 0.47266 0.57422 0.79688 0.75 0.32031 0.16797 0.69141 0.25 1.1094 0.25 1.0195 0 1.8203-0.39062 2.4062-1.1719 0.58203-0.78125 0.875-1.8672 0.875-3.2656v-7.5625h4.8906v15.312h-4.8906v-2.2188c-0.74219 0.89844-1.5234 1.5586-2.3438 1.9844-0.82422 0.41406-1.7344 0.625-2.7344 0.625-1.7617 0-3.1055-0.53906-4.0312-1.625-0.92969-1.082-1.3906-2.6602-1.3906-4.7344z"
         id="path471" />
    </symbol>
    <symbol
       id="m"
       overflow="visible">
      <path
         d="m2.5781-20.406h8.7344c2.5938 0 4.582 0.57812 5.9688 1.7344 1.3945 1.1484 2.0938 2.7891 2.0938 4.9219 0 2.1367-0.69922 3.7812-2.0938 4.9375-1.3867 1.1562-3.375 1.7344-5.9688 1.7344h-3.4844v7.0781h-5.25zm5.25 3.8125v5.7031h2.9219c1.0195 0 1.8047-0.25 2.3594-0.75 0.5625-0.5 0.84375-1.2031 0.84375-2.1094 0-0.91406-0.28125-1.6172-0.84375-2.1094-0.55469-0.48828-1.3398-0.73438-2.3594-0.73438z"
         id="path474" />
    </symbol>
    <symbol
       id="l"
       overflow="visible">
      <path
         d="m2.3594-15.312h4.8906v15.031c0 2.0508-0.49609 3.6172-1.4844 4.7031-0.98047 1.082-2.4062 1.625-4.2812 1.625h-2.4219v-3.2188h0.85938c0.92578 0 1.5625-0.21094 1.9062-0.625 0.35156-0.41797 0.53125-1.2461 0.53125-2.4844zm0-5.9688h4.8906v4h-4.8906z"
         id="path477" />
    </symbol>
    <symbol
       id="k"
       overflow="visible">
      <path
         d="m14.719-14.828v3.9844c-0.65625-0.45703-1.3242-0.79688-2-1.0156-0.66797-0.21875-1.3594-0.32812-2.0781-0.32812-1.3672 0-2.4336 0.40234-3.2031 1.2031-0.76172 0.79297-1.1406 1.9062-1.1406 3.3438 0 1.4297 0.37891 2.543 1.1406 3.3438 0.76953 0.79297 1.8359 1.1875 3.2031 1.1875 0.75781 0 1.4844-0.10938 2.1719-0.32812 0.6875-0.22656 1.3203-0.56641 1.9062-1.0156v4c-0.76172 0.28125-1.5391 0.48828-2.3281 0.625-0.78125 0.14453-1.5742 0.21875-2.375 0.21875-2.7617 0-4.9219-0.70703-6.4844-2.125-1.5547-1.4141-2.3281-3.3828-2.3281-5.9062 0-2.5312 0.77344-4.5039 2.3281-5.9219 1.5625-1.4141 3.7227-2.125 6.4844-2.125 0.80078 0 1.5938 0.074219 2.375 0.21875 0.78125 0.13672 1.5547 0.35156 2.3281 0.64062z"
         id="path480" />
    </symbol>
  </defs>
  <g
     id="g571"
     transform="translate(-9.753197,84.121324)">
    <path
       d="m 228.38169,243.93072 c -1.9131,-5.95624 -3.07848,-11.54977 -3.07848,-17.24112 -0.006,-5.59943 1.98708,-10.65214 1.77825,-15.43495 -22.57995,18.50661 -45.54965,27.536 -69.28844,25.69005 -13.7418,-1.06465 -24.72171,-8.8221 -36.17379,-15.46884 -6.99213,-4.05136 -15.14965,-7.2683 -22.229895,-11.68796 -7.658975,-4.78222 -16.456433,-8.8106 -21.784985,-13.41442 -3.96089,-3.42982 -10.400507,-11.26206 -5.591014,-14.36967 4.715338,-3.04427 8.413423,2.05441 11.875774,4.92616 6.217507,5.15628 16.48333,10.5658 24.26992,12.06201 4.51996,-5.444 -1.38765,-11.75706 -6.88435,-17.64479 -10.023373,-10.74421 -20.672718,-19.29626 -30.97976,-31.77741 -4.506506,-5.46698 -11.653492,-15.15799 -7.153711,-17.99541 4.59411,-2.90623 10.582437,5.19075 13.452095,8.54012 12.360863,14.47898 23.940546,28.02069 37.722356,34.55149 5.45634,-5.24835 -0.8959,-11.60163 -4.82984,-18.7777 -2.97744,-5.444 -4.3582,-12.40732 -6.85745,-19.146 -1.51564,-4.09158 -7.066282,-15.3716 -1.84568,-17.92028 5.36873,-2.6241 9.08027,5.59943 11.1146,9.32845 2.62031,4.78223 5.34856,9.96723 7.08646,14.04157 4.04849,9.43777 6.56774,20.09624 14.61748,26.33387 4.76241,-5.49586 5.86037,-11.74557 5.51686,-18.98542 -0.2223,-4.77649 -4.61429,-17.93797 5.10592,-18.75413 5.23406,-0.44312 6.85745,8.06824 7.5512,10.79017 2.68773,10.55432 -2.62703,20.45275 1.07104,30.80509 12.89303,-3.03853 9.91559,-18.04109 24.89762,-22.68026 5.36201,0.67907 7.96886,7.04377 6.19734,10.54268 -13.91684,8.44229 -11.66695,19.86493 -17.14346,29.87252 0.84875,4.60383 0.41764,8.96589 4.91744,14.23737 1.53583,0.48917 3.11885,0.7769 4.74897,0.87473 9.82799,-6.66398 15.5942,-16.53397 26.68932,-24.16968 12.86595,-8.84509 36.96878,-17.5284 48.35877,-11.67647 11.67366,5.99645 17.17035,26.70805 25.83227,38.10784 16.61802,-20.61921 36.36176,-46.7866 62.17507,-67.61796 23.6767,-19.10623 59.22452,-39.42639 87.69693,-42.297698 2.94365,-12.729527 -16.79321,-23.979645 -21.37974,-36.076275 -1.3068,-3.406828 -1.16534,-8.718532 -1.40786,-12.689309 -0.86222,-14.720735 3.65774,-27.323859 18.38955,-39.0227202 -1.19904,-8.2350199 5.97488,-18.9102853 -0.94306,-29.8784278 -1.01715,-1.611411 -3.16591,-2.911972 -4.14265,-4.695897 -1.42805,-2.66447 -1.51563,-7.34313 -2.36439,-11.65923 -0.65341,-3.383846 -2.9369,-9.282481 0.60626,-10.807414 6.37235,-2.733565 10.23892,10.387398 11.71418,13.984124 12.65713,3.706038 11.22238,-9.719882 12.55607,-17.373716 0.86223,-4.885794 3.40183,-9.132801 4.61429,-13.989868 1.54257,-6.215231 -1.03063,-14.455996 5.78639,-18.645105 8.81763,3.711783 10.91249,13.627309 10.24565,19.773593 -0.82854,7.705691 -9.37669,15.60732 -4.50649,23.416873 13.51262,-5.714482 10.26581,-17.080543 23.43528,-23.864732 9.92904,4.551963 3.40855,13.696403 -1.34049,20.664893 -2.58668,3.792369 -11.85561,12.637451 -5.87383,16.18777 4.59411,2.722074 20.04675,-9.990217 27.84126,-11.831745 5.29458,-1.254538 8.92541,-0.443117 12.58314,3.539123 -0.84876,6.123007 -10.26583,6.606519 -16.48333,9.075345 -4.06867,1.611411 -8.77039,4.264243 -11.95665,6.583537 -2.99089,2.169615 -8.68968,7.930063 -6.47341,11.5325343 6.02884,9.7543536 22.74205,-5.6685183 29.42257,5.7259743 -15.85683,6.1518832 -33.70093,4.0685985 -49.30895,11.1931033 -2.51252,1.1567155 -6.21077,2.7393101 -8.6626,4.7707371 -4.47288,3.729021 -6.39926,13.94965 -7.68588,19.19167 -1.75807,7.17047 -2.11521,13.293477 -1.85239,19.957747 14.09876,8.678165 31.3436,18.575864 40.82808,36.335563 14.89357,-2.716328 31.37639,7.34313 45.83246,-7.285528 -4.93762,-19.957747 9.77418,-35.921588 37.21019,-48.897732 9.62588,-4.546217 18.08604,-6.301415 26.77555,-6.261196 2.53287,0.0057 5.1599,0.851714 8.00248,0.569725 6.79675,-0.661801 11.8018,-2.670216 18.68615,-2.307656 6.41289,0.345294 11.80853,0.57547 18.24123,-0.57547 20.71411,-3.694548 48.73643,-8.528633 63.44772,11.428966 3.77896,5.11606 7.51085,13.753859 8.48757,19.750022 2.15556,13.471884 -5.01159,22.834951 -16.40917,33.941576 -5.74588,5.599425 -13.56661,9.39754 -20.38302,14.726483 -4.12247,3.21693 -6.77656,7.97043 -10.82489,11.94695 -3.58358,3.51614 -8.39997,5.47862 -12.54262,8.90268 -4.3582,3.57949 -6.59465,8.0164 -11.35706,11.22758 -6.04229,4.09158 -13.31741,6.84812 -20.71409,8.90842 -23.27319,6.50296 -43.92005,11.00321 -60.63859,-8.48251 -23.63704,8.2524 -16.94135,27.11613 -26.43238,39.97295 14.94754,11.81451 22.94382,31.31188 26.25131,44.86405 14.30087,5.63389 29.84162,6.37051 45.59102,6.30141 8.59536,-4.28148 14.1055,-10.01335 18.51026,-15.67657 4.25733,-5.48436 8.83781,-11.28517 11.7411,-16.93616 1.80533,-3.51614 0.60625,-9.46089 7.26148,-10.46798 6.26459,3.21118 5.1599,7.03802 3.05142,11.77429 -2.31732,5.20813 -10.26583,9.44365 -6.12318,14.32369 5.75259,6.79069 14.50297,-3.82698 19.57597,-7.29127 2.88983,-1.96232 6.19732,-2.83712 8.93213,-4.40817 4.78932,-2.7623 8.14407,-7.40058 13.18929,-7.26254 9.73367,12.69505 -13.35777,19.34782 -22.15574,28.64092 6.57446,4.74201 15.56041,3.00404 24.4527,1.48471 9.08027,-1.55381 21.66256,-2.91198 20.1071,8.86231 -12.34052,5.80082 -23.45598,-0.7251 -35.52023,8.59759 9.3767,7.11287 24.02849,3.03851 34.57005,6.37625 3.01107,0.95529 9.82127,4.09158 10.19858,7.34313 0.84876,7.30852 -14.87338,5.04697 -18.17399,4.52898 -6.97867,-1.11642 -13.04787,-0.54669 -19.82428,-1.55381 -7.53102,-1.09916 -22.93692,-7.63085 -24.43202,3.97653 5.20699,3.35496 14.81269,9.19615 13.05461,15.73991 -5.67861,3.22842 -9.06009,-1.23728 -14.05151,-4.71313 -3.62411,-2.5148 -8.92541,-3.53913 -11.33015,-5.73173 -2.03434,-1.85876 -3.21317,-5.38065 -5.57085,-7.39484 -6.99884,-5.93311 -22.22988,-3.86721 -30.19858,-8.29836 -12.74472,5.29446 -24.70103,7.57324 -36.54283,5.66851 -10.23892,-1.65162 -23.31974,-4.09158 -31.72127,-13.43166 -9.44412,-10.48522 -17.61526,-24.92987 -30.57451,-25.04478 -13.78216,19.86492 -37.17054,39.88013 -66.41893,55.02191 -29.16047,15.08874 -59.61426,20.71645 -84.88264,22.81138 19.48802,12.72953 38.07932,40.4267 32.02305,57.13305 -10.07045,16.56786 -48.62089,28.88841 -69.94716,37.99293 -2.24991,11.30241 13.40484,13.66753 22.05398,13.77699 11.57936,0.13804 23.05764,-5.23686 30.7849,-2.49756 5.24078,1.87027 9.51138,8.33284 5.23406,11.5729 -8.81764,6.69286 -21.80569,-7.29127 -27.167,4.98362 5.1868,4.9434 13.07479,7.37761 19.3604,11.76281 6.12319,4.28147 13.74181,8.75874 16.32158,15.44526 -8.10353,7.11286 -13.78887,-1.27757 -21.11072,-6.33029 -2.41147,-1.66886 -18.78098,-11.04917 -20.8417,-5.97347 -1.38765,3.45867 4.56702,4.46562 7.24131,6.49131 6.03557,4.58659 11.62659,11.5153 18.01877,18.47274 4.60757,5.0066 17.02223,16.14798 14.88012,19.73382 -4.392,7.30275 -12.87268,-3.04427 -18.22054,-7.91858 -2.84931,-2.58963 -5.83347,-4.83394 -8.85799,-7.08414 -7.94868,-5.95049 -14.94082,-13.32235 -23.91985,-16.23492 0.12791,10.69812 8.52792,26.98356 16.28795,39.36893 2.83586,4.54622 8.346,10.99731 3.40855,14.57106 -3.04469,2.20983 -9.59898,0.37407 -12.20584,-2.24431 -3.49597,-3.53337 -2.86966,-6.90573 -4.163,-10.16287 -5.6786,-14.27185 -14.96098,-31.52402 -26.12887,-43.9153 -10.68348,6.21524 12.94011,21.89651 5.86038,28.6586 -10.04355,9.59318 -17.17709,-12.84473 -19.26557,-17.79358 -3.41528,-8.12571 -5.53031,-14.456 -5.32821,-20.98753 -5.50341,-12.06776 -8.43359,-23.21504 -9.18131,-33.83256 -1.44826,-20.43506 23.65773,-42.0163 52.31293,-56.71317 -12.31362,-5.99072 -24.07505,-14.19127 -35.02705,-25.56778 -23.29387,16.5104 -44.2356,19.58355 -70.15755,20.68257 -18.64475,0.79415 -38.21382,3.95354 -54.82545,7.75741 -46.55327,10.67511 -92.183958,34.85644 -101.318373,73.73036 -3.22662,13.67917 -1.333759,28.60114 0.14813,44.27182 1.933282,20.5102 11.498637,40.9217 29.686419,64.88514 1.003681,1.64014 1.623414,-0.13804 0.154855,-0.56973 1.845679,0.5467 10.555539,12.06201 11.976829,14.32371 51.4714,48.72536 111.55643,67.95829 175.1352,70.5482 1.5089,0.0633 4.95107,-0.84019 4.47961,0.51794 -54.93928,6.31879 -106.32963,-6.56616 -153.4968,-34.11395 C 108.97975,566.2805 83.975212,548.44051 63.397342,527.11415 41.821016,504.76241 25.48702,477.12769 18.668542,451.5776 5.6139331,402.69608 4.7111831,356.12309 64.01642,321.4508 c 29.76057,-17.39729 60.10573,-24.90631 88.56606,-30.31598 29.39672,-5.58793 60.16091,-25.99502 75.79478,-47.20058 z"
       fill-rule="evenodd"
       id="path485"
       style="stroke-width:1.5939" />
  </g>
</svg>
